<mxfile host="app.diagrams.net" modified="2022-12-25T14:03:46.023Z" agent="5.0 (Windows NT 10.0; Win64; x64) AppleWebKit/537.36 (KHTML, like Gecko) Chrome/108.0.0.0 Safari/537.36 Edg/108.0.1462.54" etag="rcFCUMsimRHldxNhCFvn" version="20.7.4" type="github">
  <diagram id="C5RBs43oDa-KdzZeNtuy" name="Page-1">
    <mxGraphModel dx="1500" dy="830" grid="1" gridSize="9" guides="1" tooltips="1" connect="1" arrows="1" fold="1" page="1" pageScale="1" pageWidth="1200" pageHeight="1600" math="0" shadow="0">
      <root>
        <mxCell id="WIyWlLk6GJQsqaUBKTNV-0" />
        <mxCell id="WIyWlLk6GJQsqaUBKTNV-1" parent="WIyWlLk6GJQsqaUBKTNV-0" />
        <mxCell id="WIyWlLk6GJQsqaUBKTNV-2" value="" style="rounded=0;html=1;jettySize=auto;orthogonalLoop=1;fontSize=12;endArrow=block;endFill=0;endSize=8;strokeWidth=1;shadow=0;labelBackgroundColor=none;edgeStyle=orthogonalEdgeStyle;" parent="WIyWlLk6GJQsqaUBKTNV-1" source="WIyWlLk6GJQsqaUBKTNV-3" edge="1">
          <mxGeometry relative="1" as="geometry">
            <mxPoint x="393" y="108" as="targetPoint" />
          </mxGeometry>
        </mxCell>
        <mxCell id="WIyWlLk6GJQsqaUBKTNV-3" value="main函数" style="rounded=1;whiteSpace=wrap;html=1;fontSize=12;glass=0;strokeWidth=1;shadow=0;" parent="WIyWlLk6GJQsqaUBKTNV-1" vertex="1">
          <mxGeometry x="333" y="18" width="120" height="40" as="geometry" />
        </mxCell>
        <mxCell id="A8rNh1eWFXGE1kGPV9J6-0" value="init初始化函数" style="rounded=1;whiteSpace=wrap;html=1;fontSize=12;" parent="WIyWlLk6GJQsqaUBKTNV-1" vertex="1">
          <mxGeometry x="333" y="108" width="120" height="60" as="geometry" />
        </mxCell>
        <mxCell id="A8rNh1eWFXGE1kGPV9J6-2" value="" style="endArrow=classic;html=1;rounded=0;fontSize=12;" parent="WIyWlLk6GJQsqaUBKTNV-1" edge="1">
          <mxGeometry width="50" height="50" relative="1" as="geometry">
            <mxPoint x="392.5" y="168" as="sourcePoint" />
            <mxPoint x="392.5" y="218" as="targetPoint" />
          </mxGeometry>
        </mxCell>
        <mxCell id="A8rNh1eWFXGE1kGPV9J6-3" value="Display函数" style="rounded=1;whiteSpace=wrap;html=1;fontSize=12;" parent="WIyWlLk6GJQsqaUBKTNV-1" vertex="1">
          <mxGeometry x="333" y="218" width="120" height="60" as="geometry" />
        </mxCell>
        <mxCell id="A8rNh1eWFXGE1kGPV9J6-4" value="" style="endArrow=classic;html=1;rounded=0;fontSize=12;" parent="WIyWlLk6GJQsqaUBKTNV-1" edge="1">
          <mxGeometry x="1" y="128" width="50" height="50" relative="1" as="geometry">
            <mxPoint x="392.5" y="278" as="sourcePoint" />
            <mxPoint x="392.5" y="328" as="targetPoint" />
            <mxPoint x="-37" y="90" as="offset" />
          </mxGeometry>
        </mxCell>
        <mxCell id="A8rNh1eWFXGE1kGPV9J6-6" value="MusicPlay判断" style="rhombus;whiteSpace=wrap;html=1;fontSize=12;" parent="WIyWlLk6GJQsqaUBKTNV-1" vertex="1">
          <mxGeometry x="333" y="328" width="120" height="80" as="geometry" />
        </mxCell>
        <mxCell id="A8rNh1eWFXGE1kGPV9J6-7" value="" style="endArrow=classic;html=1;rounded=0;fontSize=12;" parent="WIyWlLk6GJQsqaUBKTNV-1" edge="1">
          <mxGeometry x="1" y="140" width="50" height="50" relative="1" as="geometry">
            <mxPoint x="392.5" y="408" as="sourcePoint" />
            <mxPoint x="392.5" y="458" as="targetPoint" />
            <mxPoint x="-129" y="140" as="offset" />
          </mxGeometry>
        </mxCell>
        <mxCell id="A8rNh1eWFXGE1kGPV9J6-8" value="Yes" style="text;html=1;align=center;verticalAlign=middle;resizable=0;points=[];autosize=1;strokeColor=none;fillColor=none;fontSize=12;" parent="WIyWlLk6GJQsqaUBKTNV-1" vertex="1">
          <mxGeometry x="336" y="420" width="45" height="27" as="geometry" />
        </mxCell>
        <mxCell id="A8rNh1eWFXGE1kGPV9J6-9" value="" style="endArrow=classic;html=1;rounded=0;fontSize=12;" parent="WIyWlLk6GJQsqaUBKTNV-1" edge="1">
          <mxGeometry x="1" y="99" width="50" height="50" relative="1" as="geometry">
            <mxPoint x="453" y="367.5" as="sourcePoint" />
            <mxPoint x="393" y="548" as="targetPoint" />
            <Array as="points">
              <mxPoint x="553" y="368" />
              <mxPoint x="553" y="548" />
            </Array>
            <mxPoint x="-28" y="70" as="offset" />
          </mxGeometry>
        </mxCell>
        <mxCell id="A8rNh1eWFXGE1kGPV9J6-10" value="No" style="text;html=1;align=center;verticalAlign=middle;resizable=0;points=[];autosize=1;strokeColor=none;fillColor=none;fontSize=12;" parent="WIyWlLk6GJQsqaUBKTNV-1" vertex="1">
          <mxGeometry x="455" y="345" width="36" height="27" as="geometry" />
        </mxCell>
        <mxCell id="A8rNh1eWFXGE1kGPV9J6-12" value="MusicPlay函数" style="rounded=1;whiteSpace=wrap;html=1;fontSize=12;" parent="WIyWlLk6GJQsqaUBKTNV-1" vertex="1">
          <mxGeometry x="333" y="458" width="120" height="60" as="geometry" />
        </mxCell>
        <mxCell id="A8rNh1eWFXGE1kGPV9J6-14" value="AlarmClock判断" style="rhombus;whiteSpace=wrap;html=1;fontSize=12;" parent="WIyWlLk6GJQsqaUBKTNV-1" vertex="1">
          <mxGeometry x="333" y="568" width="120" height="80" as="geometry" />
        </mxCell>
        <mxCell id="A8rNh1eWFXGE1kGPV9J6-15" value="" style="endArrow=classic;html=1;rounded=0;fontSize=12;" parent="WIyWlLk6GJQsqaUBKTNV-1" edge="1">
          <mxGeometry x="1" y="140" width="50" height="50" relative="1" as="geometry">
            <mxPoint x="392.5" y="518" as="sourcePoint" />
            <mxPoint x="392.5" y="568" as="targetPoint" />
            <mxPoint x="-129" y="140" as="offset" />
          </mxGeometry>
        </mxCell>
        <mxCell id="A8rNh1eWFXGE1kGPV9J6-16" value="AlarmClock函数" style="rounded=1;whiteSpace=wrap;html=1;fontSize=12;" parent="WIyWlLk6GJQsqaUBKTNV-1" vertex="1">
          <mxGeometry x="333" y="698" width="120" height="60" as="geometry" />
        </mxCell>
        <mxCell id="A8rNh1eWFXGE1kGPV9J6-17" value="" style="endArrow=classic;html=1;rounded=0;fontSize=12;" parent="WIyWlLk6GJQsqaUBKTNV-1" edge="1">
          <mxGeometry x="1" y="140" width="50" height="50" relative="1" as="geometry">
            <mxPoint x="392.5" y="648" as="sourcePoint" />
            <mxPoint x="392.5" y="698" as="targetPoint" />
            <mxPoint x="-129" y="140" as="offset" />
          </mxGeometry>
        </mxCell>
        <mxCell id="A8rNh1eWFXGE1kGPV9J6-18" value="Yes" style="text;html=1;align=center;verticalAlign=middle;resizable=0;points=[];autosize=1;strokeColor=none;fillColor=none;fontSize=12;" parent="WIyWlLk6GJQsqaUBKTNV-1" vertex="1">
          <mxGeometry x="336" y="540" width="45" height="27" as="geometry" />
        </mxCell>
        <mxCell id="A8rNh1eWFXGE1kGPV9J6-19" value="Yes" style="text;html=1;align=center;verticalAlign=middle;resizable=0;points=[];autosize=1;strokeColor=none;fillColor=none;fontSize=12;" parent="WIyWlLk6GJQsqaUBKTNV-1" vertex="1">
          <mxGeometry x="336" y="665" width="45" height="27" as="geometry" />
        </mxCell>
        <mxCell id="A8rNh1eWFXGE1kGPV9J6-20" value="" style="endArrow=classic;html=1;rounded=0;fontSize=12;exitX=1;exitY=0.5;exitDx=0;exitDy=0;" parent="WIyWlLk6GJQsqaUBKTNV-1" source="A8rNh1eWFXGE1kGPV9J6-14" edge="1">
          <mxGeometry x="1" y="140" width="50" height="50" relative="1" as="geometry">
            <mxPoint x="493" y="608" as="sourcePoint" />
            <mxPoint x="393" y="788" as="targetPoint" />
            <mxPoint x="-129" y="140" as="offset" />
            <Array as="points">
              <mxPoint x="553" y="608" />
              <mxPoint x="553" y="788" />
            </Array>
          </mxGeometry>
        </mxCell>
        <mxCell id="A8rNh1eWFXGE1kGPV9J6-21" value="No" style="text;html=1;align=center;verticalAlign=middle;resizable=0;points=[];autosize=1;strokeColor=none;fillColor=none;fontSize=12;" parent="WIyWlLk6GJQsqaUBKTNV-1" vertex="1">
          <mxGeometry x="455" y="580" width="36" height="27" as="geometry" />
        </mxCell>
        <mxCell id="A8rNh1eWFXGE1kGPV9J6-22" value="" style="endArrow=classic;html=1;rounded=0;fontSize=12;" parent="WIyWlLk6GJQsqaUBKTNV-1" edge="1">
          <mxGeometry x="1" y="140" width="50" height="50" relative="1" as="geometry">
            <mxPoint x="392.5" y="758" as="sourcePoint" />
            <mxPoint x="392.5" y="808" as="targetPoint" />
            <mxPoint x="-129" y="140" as="offset" />
          </mxGeometry>
        </mxCell>
        <mxCell id="A8rNh1eWFXGE1kGPV9J6-23" value="StopWatch判断" style="rhombus;whiteSpace=wrap;html=1;fontSize=12;" parent="WIyWlLk6GJQsqaUBKTNV-1" vertex="1">
          <mxGeometry x="333" y="808" width="120" height="80" as="geometry" />
        </mxCell>
        <mxCell id="A8rNh1eWFXGE1kGPV9J6-24" value="" style="endArrow=classic;html=1;rounded=0;fontSize=12;" parent="WIyWlLk6GJQsqaUBKTNV-1" edge="1">
          <mxGeometry x="1" y="140" width="50" height="50" relative="1" as="geometry">
            <mxPoint x="392.5" y="888" as="sourcePoint" />
            <mxPoint x="392.5" y="938" as="targetPoint" />
            <mxPoint x="-129" y="140" as="offset" />
          </mxGeometry>
        </mxCell>
        <mxCell id="A8rNh1eWFXGE1kGPV9J6-25" value="Yes" style="text;html=1;align=center;verticalAlign=middle;resizable=0;points=[];autosize=1;strokeColor=none;fillColor=none;fontSize=12;" parent="WIyWlLk6GJQsqaUBKTNV-1" vertex="1">
          <mxGeometry x="336" y="900" width="45" height="27" as="geometry" />
        </mxCell>
        <mxCell id="A8rNh1eWFXGE1kGPV9J6-26" value="StopWatch函数" style="rounded=1;whiteSpace=wrap;html=1;fontSize=12;" parent="WIyWlLk6GJQsqaUBKTNV-1" vertex="1">
          <mxGeometry x="333" y="938" width="120" height="60" as="geometry" />
        </mxCell>
        <mxCell id="A8rNh1eWFXGE1kGPV9J6-27" value="" style="endArrow=classic;html=1;rounded=0;fontSize=12;" parent="WIyWlLk6GJQsqaUBKTNV-1" edge="1">
          <mxGeometry x="1" y="140" width="50" height="50" relative="1" as="geometry">
            <mxPoint x="453" y="848" as="sourcePoint" />
            <mxPoint x="396" y="1026" as="targetPoint" />
            <mxPoint x="-129" y="140" as="offset" />
            <Array as="points">
              <mxPoint x="553" y="848" />
              <mxPoint x="553" y="1026" />
            </Array>
          </mxGeometry>
        </mxCell>
        <mxCell id="A8rNh1eWFXGE1kGPV9J6-28" value="" style="endArrow=classic;html=1;rounded=0;fontSize=12;" parent="WIyWlLk6GJQsqaUBKTNV-1" edge="1">
          <mxGeometry x="1" y="140" width="50" height="50" relative="1" as="geometry">
            <mxPoint x="392.40999999999997" y="998" as="sourcePoint" />
            <mxPoint x="392.40999999999997" y="1048" as="targetPoint" />
            <mxPoint x="-129" y="140" as="offset" />
          </mxGeometry>
        </mxCell>
        <mxCell id="A8rNh1eWFXGE1kGPV9J6-29" value="No" style="text;html=1;align=center;verticalAlign=middle;resizable=0;points=[];autosize=1;strokeColor=none;fillColor=none;fontSize=12;" parent="WIyWlLk6GJQsqaUBKTNV-1" vertex="1">
          <mxGeometry x="453" y="816" width="36" height="27" as="geometry" />
        </mxCell>
        <mxCell id="A8rNh1eWFXGE1kGPV9J6-30" value="ChangeTime函数" style="rounded=1;whiteSpace=wrap;html=1;fontSize=12;" parent="WIyWlLk6GJQsqaUBKTNV-1" vertex="1">
          <mxGeometry x="333" y="1044" width="120" height="60" as="geometry" />
        </mxCell>
        <mxCell id="A8rNh1eWFXGE1kGPV9J6-31" value="" style="endArrow=classic;html=1;rounded=0;fontSize=12;" parent="WIyWlLk6GJQsqaUBKTNV-1" edge="1">
          <mxGeometry width="50" height="50" relative="1" as="geometry">
            <mxPoint x="396" y="1107" as="sourcePoint" />
            <mxPoint x="387" y="189" as="targetPoint" />
            <Array as="points">
              <mxPoint x="396" y="1197" />
              <mxPoint x="153" y="1197" />
              <mxPoint x="153" y="189" />
            </Array>
          </mxGeometry>
        </mxCell>
        <mxCell id="A8rNh1eWFXGE1kGPV9J6-33" value="" style="edgeStyle=orthogonalEdgeStyle;rounded=0;orthogonalLoop=1;jettySize=auto;html=1;fontSize=12;" parent="WIyWlLk6GJQsqaUBKTNV-1" source="A8rNh1eWFXGE1kGPV9J6-32" target="A8rNh1eWFXGE1kGPV9J6-3" edge="1">
          <mxGeometry relative="1" as="geometry" />
        </mxCell>
        <mxCell id="A8rNh1eWFXGE1kGPV9J6-32" value="timedis函数&lt;br&gt;定时器中断0" style="ellipse;whiteSpace=wrap;html=1;fontSize=12;" parent="WIyWlLk6GJQsqaUBKTNV-1" vertex="1">
          <mxGeometry x="540" y="153" width="120" height="80" as="geometry" />
        </mxCell>
        <mxCell id="A8rNh1eWFXGE1kGPV9J6-35" value="" style="edgeStyle=orthogonalEdgeStyle;rounded=0;orthogonalLoop=1;jettySize=auto;html=1;fontSize=12;entryX=1;entryY=0.5;entryDx=0;entryDy=0;" parent="WIyWlLk6GJQsqaUBKTNV-1" source="A8rNh1eWFXGE1kGPV9J6-34" target="A8rNh1eWFXGE1kGPV9J6-3" edge="1">
          <mxGeometry x="-0.421" y="-17" relative="1" as="geometry">
            <mxPoint x="17" y="-16" as="offset" />
          </mxGeometry>
        </mxCell>
        <mxCell id="A8rNh1eWFXGE1kGPV9J6-34" value="keystroke0函数&lt;br&gt;外部中断0" style="ellipse;whiteSpace=wrap;html=1;fontSize=12;" parent="WIyWlLk6GJQsqaUBKTNV-1" vertex="1">
          <mxGeometry x="540" y="265" width="120" height="80" as="geometry" />
        </mxCell>
        <mxCell id="A8rNh1eWFXGE1kGPV9J6-37" value="" style="edgeStyle=orthogonalEdgeStyle;rounded=0;orthogonalLoop=1;jettySize=auto;html=1;fontSize=12;" parent="WIyWlLk6GJQsqaUBKTNV-1" source="A8rNh1eWFXGE1kGPV9J6-36" target="A8rNh1eWFXGE1kGPV9J6-30" edge="1">
          <mxGeometry relative="1" as="geometry" />
        </mxCell>
        <mxCell id="A8rNh1eWFXGE1kGPV9J6-36" value="keystroke1函数&lt;br&gt;外部中断1" style="ellipse;whiteSpace=wrap;html=1;fontSize=12;" parent="WIyWlLk6GJQsqaUBKTNV-1" vertex="1">
          <mxGeometry x="567" y="1034" width="120" height="80" as="geometry" />
        </mxCell>
        <mxCell id="A8rNh1eWFXGE1kGPV9J6-40" value="" style="edgeStyle=orthogonalEdgeStyle;rounded=0;orthogonalLoop=1;jettySize=auto;html=1;fontSize=12;entryX=1;entryY=0.5;entryDx=0;entryDy=0;" parent="WIyWlLk6GJQsqaUBKTNV-1" source="A8rNh1eWFXGE1kGPV9J6-38" target="A8rNh1eWFXGE1kGPV9J6-16" edge="1">
          <mxGeometry relative="1" as="geometry">
            <mxPoint x="460" y="718" as="targetPoint" />
          </mxGeometry>
        </mxCell>
        <mxCell id="A8rNh1eWFXGE1kGPV9J6-38" value="stopwatch1函数&lt;br&gt;定时器中断1" style="ellipse;whiteSpace=wrap;html=1;fontSize=12;" parent="WIyWlLk6GJQsqaUBKTNV-1" vertex="1">
          <mxGeometry x="600" y="688" width="120" height="80" as="geometry" />
        </mxCell>
      </root>
    </mxGraphModel>
  </diagram>
</mxfile>
